<svg width="200" height="71" fill="none" xmlns="http://www.w3.org/2000/svg"><g clip-path="url(#clip0_1_141)"><path d="M99.893 1.247l-8.45 9.822-.132.154h-.19l-12.026-.09.077 13.801.001.217-.134.153L70.479 35l8.56 9.696.134.153v.217l-.078 13.8 12.026-.088.19-.002.132.155 8.45 9.822 8.449-9.822.133-.154h.189l12.027.09-.077-13.801-.002-.217.135-.153L129.306 35l-8.559-9.696-.135-.153.002-.217.077-13.8-12.027.088-.189.002-.133-.155-8.449-9.822v0z" stroke="#000" stroke-width="1.029"/><path d="M109.348 26.992c-.084-.33-.493-.309-.537.031-.255 1.995 1.218 6.713.691 8.895l-.01.043c-.114.468-.715.377-.72-.11-.018-1.886-.45-3.947-1.378-5.21-3.495-4.758.237-8.268.099-9.406-.018-.154-.147-.241-.276-.192l-.011.005c-.222.14-.432.312-.641.478-1.398 1.116-2.679 2.457-3.419 4.265-.425 1.038-.538 2.198-.781 3.3-.092.42-.199.835-.323 1.244-.139.46-.334.92-.643 1.26a.963.963 0 01-.495.305c-.491.11-.751-.282-.844-.742-.26-1.28-.07-2.574.028-3.862.392-5.189-4.538-5.672-2.737-13.237.478-2.005-5.973 4.584-3.8 10.317.425 1.121.386 2.191-.096 3.272-.514 1.151-1.146 2.193-1.457 3.453-.112.453-.175.912-.225 1.377-.063.6.089 1.5-.601 1.655-.286.065-.682.03-.92-.185-.184-.168-.287-.43-.348-.691-.285-1.224-.25-2.462-.114-3.711.119-1.1.202-3.17-.794-1.104-3.211 6.661-3.096 14.957.824 21.207 1.507 2.403 3.42 3.934 5.922 4.634 5.087 1.423 11.17.992 14.374-4.024 1.223-1.916 1.958-4.256 2.438-6.548.614-2.927.732-5.709-.229-8.55-.932-2.757-2.25-5.32-2.977-8.169z" fill="#000"/></g><path d="M160.5 35.5a8 8 0 1116 0 8 8 0 01-16 0z" fill="#8B83F6" stroke="#000"/><path d="M22.5 35.5a8 8 0 1116 0 8 8 0 01-16 0z" fill="#FB4B4D" stroke="#000"/><defs><clipPath id="clip0_1_141"><path fill="#fff" transform="translate(69)" d="M0 0h61v70H0z"/></clipPath></defs></svg>