<svg width="61" height="70" fill="none" xmlns="http://www.w3.org/2000/svg"><g clip-path="url(#clip0_1_142)"><path d="M30.893 1.247l-8.45 9.822-.132.154h-.19l-12.026-.09.077 13.801.001.217-.134.153L1.479 35l8.56 9.696.134.153v.217l-.078 13.8 12.026-.088.19-.002.132.155 8.45 9.822 8.45-9.822.132-.154h.19l12.026.09-.077-13.801-.002-.217.135-.153L60.306 35l-8.559-9.696-.135-.153.002-.217.077-13.8-12.027.088-.189.002-.133-.155-8.449-9.822v0z" stroke="#000" stroke-width="1.029"/><path d="M40.348 26.992c-.084-.33-.493-.309-.537.031-.255 1.995 1.218 6.713.691 8.895l-.01.043c-.114.468-.715.377-.72-.11-.018-1.886-.45-3.947-1.378-5.21-3.495-4.758.237-8.268.1-9.406-.02-.154-.148-.241-.277-.192l-.01.005c-.223.14-.433.312-.642.478-1.398 1.116-2.679 2.457-3.418 4.265-.426 1.038-.539 2.198-.782 3.3-.092.42-.199.835-.323 1.244-.14.46-.334.92-.643 1.26a.964.964 0 01-.495.305c-.49.11-.75-.282-.844-.742-.26-1.28-.07-2.574.028-3.862.392-5.189-4.538-5.672-2.737-13.237.478-2.005-5.973 4.584-3.8 10.317.425 1.121.386 2.191-.096 3.272-.514 1.151-1.146 2.193-1.457 3.453-.112.453-.175.912-.225 1.377-.063.6.089 1.5-.601 1.655-.286.065-.683.03-.92-.185-.184-.168-.287-.43-.348-.691-.285-1.224-.25-2.462-.114-3.711.119-1.1.202-3.17-.794-1.104-3.211 6.661-3.096 14.957.824 21.207 1.507 2.403 3.42 3.934 5.921 4.634 5.088 1.423 11.171.992 14.374-4.024 1.224-1.916 1.959-4.256 2.44-6.548.614-2.927.73-5.709-.23-8.55-.932-2.757-2.25-5.32-2.977-8.169z" fill="#000"/></g><defs><clipPath id="clip0_1_142"><path fill="#fff" d="M0 0h61v70H0z"/></clipPath></defs></svg>