<?xml version="1.0" encoding="utf-8"?><svg viewBox="0 0 225 156" xmlns="http://www.w3.org/2000/svg" xmlns:xlink="http://www.w3.org/1999/xlink"><style>:root>svg{display:none}:root>svg:target{display:block}</style><svg viewBox="0 0 225 156" id="mid-title" xmlns="http://www.w3.org/2000/svg"><path d="M91.3.127c2.124-.03 3.76.304 5.251 1.014 4.137 1.971 4.655 5.908 3.16 8.81-.12.23-.252.463-.42.657-.95 1.085-1.67 2.326-2.418 3.549-1.369 2.23-2.904 4.328-4.807 6.14-2.26 2.153-4.875 3.6-7.996 4.057-.658.097-1.263.321-1.764.769-.121.107-.2.277-.258.435-.083.226.233.577.445.5.204-.072.4-.164.585-.275a3.28 3.28 0 0 1 1.213-.437c4.003-.643 7.164-2.736 9.82-5.706 1.367-1.529 2.534-3.199 3.614-4.934.208-.332.461-.648.598-1.007.437-1.154 1.39-1.154 2.352-1.065.265.024.551.251.747.46.336.355.485.82.506 1.31.065 1.443-.012 2.862-.563 4.227-.693 1.712-1.684 3.23-2.92 4.595-1.373 1.52-2.906 2.869-4.55 4.085a9.26 9.26 0 0 1-1.44.887c-2.105 1.029-4.212 2.056-6.344 3.028-.743.339-1.55.562-2.344.763-1.415.359-2.568-.13-3.448-1.253-.454-.58-.832-1.22-1.246-1.831a12.825 12.825 0 0 0-2.94-3.11c-1.538-1.158-3.281-1.762-5.175-1.932a6.726 6.726 0 0 0-1.806.103c-.75.14-1.26-.156-1.7-.694-.029-.032-.057-.065-.08-.102-1.246-1.883-2.492-3.764-3.73-5.651-.166-.253-.289-.534-.421-.807-.092-.19-.012-.345.167-.42.959-.411 1.96-.333 2.95-.199.948.128 1.86.419 2.752.77.972.383 1.975.624 3.012.787 1.334.219 2.7.133 3.995-.252 1.785-.534 3.53-1.201 5.291-1.818.162-.056.313-.152.46-.241.203-.122.305-.398.21-.552a.495.495 0 0 0-.562-.227c-.378.088-.752.206-1.12.333-1.15.398-2.3.788-3.439 1.212-2.385.886-4.748.836-7.126-.05-.931-.348-1.896-.615-2.862-.856-1.286-.32-2.58-.316-3.859.096-.348.113-.441.016-.538-.339-.331-1.213-.127-2.417.068-3.616.087-.526.405-.964.783-1.33 1.742-1.668 3.61-3.125 6.05-3.652 1.483-.32 2.955-.691 4.433-1.043A22.69 22.69 0 0 0 78.78 3.57c.853-.425 1.724-.819 2.591-1.218C83.802 1.229 86.387.687 89.023.35c.902-.113 1.81-.179 2.278-.224ZM32.012 47.593c.085-1.308.175-2.303.206-3.299.023-.735.025-1.482-.066-2.21-.18-1.448.172-2.753.897-3.985.4-.679.878-1.303 1.473-1.816 2.32-2 4.157-4.43 6.094-6.774 1.495-1.807 2.945-3.652 4.474-5.432 2.447-2.853 5.232-5.333 8.443-7.305.846-.52 1.76-.935 2.66-1.365.92-.44 1.917-.516 2.922-.545a2.474 2.474 0 0 1 1.883.743c.46.456.912.938 1.282 1.467a20.893 20.893 0 0 1 1.425 2.332 33.855 33.855 0 0 0 2.2 3.687c.603.872 1.047 1.796.9 2.907-.023.17.005.348.028.52.378 2.786-.173 5.442-1.132 8.039-.349.944-.884 1.79-1.485 2.591-2.124 2.833-4.61 5.316-7.379 7.51-1.743 1.38-3.706 2.418-5.687 3.416a195.96 195.96 0 0 0-3.35 1.739c-.693.367-1.342.797-1.895 1.367-.139.144-.38.31-.544.282-.5-.08-.943.144-1.408.175-.775.052-1.564.071-2.334-.017s-1.54-.246-2.276-.536c-.358-.141-.755-.182-1.134-.275-.168-.04-.23-.28-.102-.415.208-.222.407-.457.644-.644.615-.482 1.224-.977 1.875-1.406 1.524-1 3.075-1.962 4.613-2.945 2.49-1.592 4.93-3.254 7.17-5.194a34.108 34.108 0 0 0 6.541-7.563c1.128-1.776 1.962-3.662 2.395-5.736.31-1.488.621-2.973.707-4.495a3.36 3.36 0 0 0-.057-.9c-.03-.134-.213-.308-.344-.323-.122-.014-.355.13-.386.246a6.225 6.225 0 0 0-.236 1.276c-.11 1.7-.483 3.35-.903 4.99-.457 1.787-1.33 3.388-2.347 4.917-2.187 3.29-4.921 6.06-8.053 8.453-2.35 1.796-4.854 3.363-7.356 4.934a90.307 90.307 0 0 0-3.464 2.32c-.933.65-1.77 1.41-2.344 2.412-.197.342-.474.48-.85.487-.303.006-.608.046-.911.036-1.186-.041-2.174-.766-2.501-1.925-.182-.66-.227-1.358-.288-1.741ZM130.08 18.85c.01.127.062.267.025.38-.273.822-.532 1.652-.858 2.455a7.334 7.334 0 0 1-1.943 2.74c-.229.201-.455.405-.67.62-1.774 1.753-3.965 2.58-6.384 2.965-2.075.328-4.161.326-6.238.184-1.949-.13-3.86-.57-5.741-1.104-.249-.07-.484-.194-.73-.277-.61-.206-.995-.616-1.308-1.184-1.248-2.27-2.105-4.665-2.392-7.246-.052-.47-.065-.965.019-1.427.204-1.116.174-2.24.219-3.363.001-.014.152-.057.205-.03.93.47 1.88.887 2.886 1.182 1.595.467 3.237.611 4.88.739 2.422.19 4.849.328 7.27.534.817.07 1.62.29 2.435.412.421.063.853.075 1.282.086.15.004.242-.314.124-.418-.162-.14-.32-.313-.511-.38-.53-.184-1.068-.384-1.62-.466a62.242 62.242 0 0 0-6.22-.585c-2.294-.106-4.601-.222-6.849-.757-1.445-.344-2.813-.892-3.996-1.827-.651-.515-1.254-1.076-1.564-1.879-.046-.12-.093-.254-.179-.346-.676-.724-.615-1.603-.47-2.463.122-.727.31-1.442.563-2.136.387-1.059.869-2.082 1.282-3.132.269-.683.682-.978 1.466-1 2.702-.079 5.382.073 8.041.549 3.163.564 6.293 1.277 9.33 2.343.981.344 1.941.754 2.917 1.12.196.073.415.095.626.117.134.015.287-.29.204-.405-.1-.134-.198-.296-.339-.37-.649-.346-1.293-.712-1.974-.989-1.892-.772-3.858-1.317-5.837-1.81-.882-.219-1.771-.399-2.656-.6-.074-.017-.141-.064-.209-.098.082-.024.164-.05.246-.07a.45.45 0 0 1 .13-.006c2.818.208 5.618.528 8.321 1.413 1.608.528 3.2 1.1 4.724 1.847 1.409.694 2.749 1.494 3.941 2.52.813.699 1.701 1.185 2.784 1.297a4.87 4.87 0 0 1 1.016.227c1.083.357 1.469 1.455.825 2.406a6.08 6.08 0 0 1-.954 1.061c-.612.554-1.253 1.075-1.893 1.596-1.013.828-1.952 1.722-2.689 2.818a3.335 3.335 0 0 1-.802.842c-2.299 1.645-4.677 3.15-7.354 4.139-1.725.638-3.512.954-5.325 1.163-.905.103-1.817.163-2.727.211-1.829.097-3.642-.069-5.45-.34-.554-.085-1.118-.114-1.679-.143-.089-.004-.24.123-.264.215-.023.096.044.256.125.326.133.111.287.194.454.24.501.14 1.002.303 1.514.37 1.806.24 3.612.517 5.443.282.388-.05.78-.068 1.172-.076 4.086-.097 7.865-1.232 11.349-3.364.519-.317 1.029-.648 1.553-.954.139-.08.319-.09.48-.13l-.026-.024Zm3.654 14.887c.359-.105.556.181.795.344 1.259.863 2.574 1.622 4.041 2.073.785.24 1.59.423 2.395.59.335.069.698.072 1.038.025 1.771-.236 3.551-.224 5.332-.247.78-.01 1.559-.096 2.337-.164a1.06 1.06 0 0 0 .478-.166.44.44 0 0 0 .168-.322c-.002-.107-.09-.262-.183-.306-.189-.09-.408-.175-.612-.169-2.04.067-4.078.152-6.117.233-.261.01-.528.002-.778.06-1.058.236-2.077.015-3.082-.27a13.546 13.546 0 0 1-3.444-1.52c-1.564-.964-2.941-2.152-4.222-3.46-.372-.38-.67-.794-.729-1.346-.227-2.185-.151-4.338.669-6.413.138-.352.253-.42.579-.251 1.853.952 3.712 1.893 5.543 2.886a71.475 71.475 0 0 1 6.981 4.308c.357.244.731.463 1.118.655.078.041.269-.028.335-.107.062-.077.082-.263.031-.348a1.818 1.818 0 0 0-.42-.488c-.712-.568-1.408-1.162-2.166-1.666-3.185-2.121-6.54-3.946-9.958-5.663-.233-.116-.472-.222-.704-.339-.859-.426-.859-.427-.493-1.256a13.415 13.415 0 0 1 1.731-2.901 56.997 56.997 0 0 1 1.73-2.12c.576-.662 1.076-1.362 1.392-2.186.063-.162.137-.319.221-.471.151-.28.339-.378.641-.274.737.256 1.484.495 2.193.815 2.102.95 4.086 2.114 6.008 3.387a44.475 44.475 0 0 1 6.576 5.32c.401.391.84.748 1.279 1.1.07.057.27.044.341-.018.076-.066.134-.262.09-.339a5.619 5.619 0 0 0-.587-.85c-1.222-1.422-2.593-2.689-4.071-3.838a50.067 50.067 0 0 0-8.007-5.106c-1.045-.534-2.114-1.009-3.238-1.357-.4-.123-.45-.287-.198-.64.59-.824 1.287-1.52 2.262-1.895.351-.135.642-.171.973.06 1.821 1.277 3.848 2.185 5.816 3.195a41.093 41.093 0 0 1 6.253 3.985c.686.527 1.304 1.15 1.916 1.763a27.77 27.77 0 0 1 4.732 6.353 11.719 11.719 0 0 1 1.406 4.707c.09 1.12.598 1.868 1.534 2.396.378.214.751.436 1.122.662.492.3.893.69 1.145 1.216.416.861.013 1.59-.931 1.672-.301.026-.607.018-.912.014-3.619-.056-7.048.836-10.394 2.11-1.911.73-3.707 1.697-5.501 2.674-.455.249-.93.468-1.406.675-.621.27-1.264.314-1.908.089-.86-.3-1.732-.572-2.563-.94-.952-.42-1.865-.926-2.792-1.403-2.066-1.066-3.838-2.53-5.511-4.12-.117-.11-.174-.283-.257-.427l-.018.019h.001ZM40.894 155.028c-.521 0-1.043.007-1.563-.001-2.62-.041-4.898-.953-6.916-2.617a57.337 57.337 0 0 0-4.148-3.146c-2.199-1.502-4.686-2.229-7.332-2.399-1.955-.125-3.902.035-5.85.196-2.252.188-4.513.195-6.77.096-.828-.036-1.63-.227-2.367-.642-.302-.169-.629-.291-.942-.442-1.143-.553-2.323-.657-3.543-.296a1.463 1.463 0 0 1-.38.067c-.079.002-.216-.042-.223-.083-.02-.112-.026-.266.038-.345.16-.205.345-.388.552-.547.487-.36.975-.729 1.5-1.027.369-.211.786-.402 1.237-.174.948-.075 1.9-.124 2.847-.228 1.983-.22 3.963-.476 5.944-.702 4.059-.464 8.08-1.098 11.968-2.405 1.612-.542 3.126-1.288 4.6-2.128 2.428-1.384 5.02-2.353 7.709-3.088 1.327-.362 2.68-.347 4.008-.145 1.37.209 2.705.609 3.952 1.256 1.818.942 3.317 2.216 4.291 4.046a78.1 78.1 0 0 1 1.133 2.199c.557 1.129 1.128 2.251 1.636 3.401.336.752.614 1.528.83 2.322.448 1.68-.143 3.085-1.332 4.25-.327.322-.797.524-1.233.706-1.242.515-2.52.925-3.841 1.202-1.917.401-3.834.758-5.805.674ZM176.515 56.32c-.089 1.676-.134 2.98-.519 4.236-.154.5-.101.92.185 1.352.336.506.651 1.027.942 1.56.318.58.488 1.204.433 1.877-.057.712-.362 1.11-1.045 1.324-.639.201-1.286.149-1.934.06-.945-.13-1.891-.264-2.835-.394-.795-.107-1.506-.4-2.102-.947-.574-.53-1.134-1.079-1.723-1.592-.718-.628-1.435-1.265-2.201-1.832-1.839-1.36-3.908-2.054-6.21-1.96a12.594 12.594 0 0 1-2.854-.198c-1.721-.32-3.23-1.006-4.224-2.54-1.286-1.988-2.143-4.16-2.752-6.437-.02-.075.023-.166.037-.25.091.037.224.05.263.117 1.329 2.264 3.377 3.71 5.635 4.889 1.734.905 3.448 1.838 5.074 2.925.182.116.372.22.568.31.213.103.489.042.575-.118.123-.226.047-.44-.118-.59-.321-.287-.646-.587-1.013-.81a159.952 159.952 0 0 0-3.487-2.032c-.414-.237-.862-.418-1.269-.665-.852-.52-1.724-1.018-2.519-1.616-2.73-2.05-3.922-4.885-4.089-8.22-.021-.402.07-.77.259-1.125.41-.773.885-1.504 1.527-2.097.606-.558 1.255-1.072 1.899-1.586.119-.095.308-.102.464-.152.029.167.069.333.082.501.012.13-.01.26-.014.39-.049 1.297.308 2.484.947 3.602.656 1.144 1.502 2.123 2.474 3.006 1.317 1.197 2.59 2.44 3.75 3.799 1.794 2.1 3.187 4.438 4.308 6.952.162.351.353.688.57 1.008.051.078.267.135.342.09a.782.782 0 0 0 .307-.373c.041-.104-.008-.259-.051-.377-.215-.568-.41-1.146-.669-1.693-1.411-2.968-3.253-5.64-5.591-7.956-.957-.949-1.933-1.876-2.902-2.812a9.136 9.136 0 0 1-1.908-2.62c-.631-1.31-.737-2.659-.306-4.053.099-.317.26-.542.563-.668.999-.417 2.001-.83 2.998-1.255.442-.189.719.004 1.008.326a34.895 34.895 0 0 1 6.421 10.204c.839 2.049 1.653 4.108 2.263 6.24.09.288.217.563.378.818.049.082.236.138.342.115a.436.436 0 0 0 .273-.243 1.04 1.04 0 0 0 .043-.507 8.723 8.723 0 0 0-.272-1.14c-1.203-3.679-2.596-7.277-4.576-10.622a31.426 31.426 0 0 0-2.698-3.832c-.411-.505-.832-1.003-1.247-1.506-.15-.18-.121-.314.088-.376 1.207-.365 2.443-.588 3.689-.764.53-.075.93.12 1.255.52.493.605 1.006 1.196 1.483 1.815 2.263 2.932 3.757 6.24 4.691 9.806.473 1.803.862 3.629 1.296 5.442.08.335.174.668.293.992a.323.323 0 0 0 .296.216.317.317 0 0 0 .127-.023c.107-.042.247-.164.257-.26.031-.298.051-.609-.003-.9-.207-1.109-.398-2.224-.681-3.313a86.932 86.932 0 0 0-1.394-4.88c-1.039-3.225-2.762-6.076-4.875-8.703-.161-.2-.308-.411-.442-.629-.018-.031.078-.193.114-.19.556.042 1.119.061 1.665.17.23.047.459.258.618.453.441.533.877 1.08 1.262 1.655 1.814 2.722 3.292 5.615 4.38 8.703.635 1.801 1.334 3.587 1.615 5.487.213 1.416.343 2.843.464 3.896Zm-91.542 67.59c-1.28-.125-2.77.111-4.2.695-.289.117-.53.064-.683-.179-.979-1.557-2.38-2.759-3.51-4.189-.423-.535-1.023-.931-1.56-1.371a1.95 1.95 0 0 0-1.327-.452c-1.017.035-1.843-.419-2.584-1.052-.296-.253-.54-.564-.821-.835-.967-.935-2.055-1.435-3.427-.965-.41.14-.84.213-1.257.332-.227.066-.367.322-.3.5a.55.55 0 0 0 .483.377c.126.013.257-.018.383-.045.381-.084.76-.176 1.14-.265.578-.14 1.153-.103 1.613.275.803.657 1.562 1.368 2.33 2.066.023.019-.01.152-.053.182-.104.074-.225.13-.346.176-.607.232-1.219.449-1.823.69-.223.088-.392.088-.585-.081a10.902 10.902 0 0 0-1.022-.8c-1.538-1.05-3.457-.746-4.432.809-.59.94-1.232 1.908-1.211 3.107.005.28-.125.498-.345.667-.07.052-.142.104-.2.168-.694.775-1.53 1.224-2.596 1.3-.411.029-.805.291-1.208.445-.337.128-.544.004-.713-.342-.212-.433-.13-.836.026-1.256.619-1.685 1.468-3.238 2.594-4.639.055-.068.106-.14.17-.197 1.237-1.143 1.816-2.62 2.142-4.223.062-.296.115-.596.167-.895.29-1.665 1.153-2.976 2.467-4.008a15.87 15.87 0 0 1 3.57-2.122c2.601-1.116 5.274-1.992 8.065-2.483 1.627-.287 3.271-.481 4.92-.43.946.029 1.886.261 2.825.431.425.077.838.217 1.254.341 2.244.67 4.484 1.349 6.76 1.899.504.128.998.297 1.475.504.631.269 1.037.447.129 1.081-.382.267-.674.67-.979 1.034-.249.299-.46.63-.681.953-.885 1.294-2.141 1.848-3.674 1.853-.566.002-1.13-.015-1.693.016-1.618.091-3.021.736-4.26 1.748-.26.213-.475.507-.635.804-.09.166-.05.417-.029.626.018.177.4.309.537.197.102-.077.193-.168.27-.269.903-1.242 2.223-1.766 3.65-2.049.585-.117 1.206-.078 1.81-.071 1.987.025 3.673-.566 4.842-2.273.22-.323.429-.656.682-.953.28-.328.599-.623.91-.923.054-.051.173-.084.239-.06.058.02.116.127.124.201.138 1.19-.09 2.337-.445 3.46-.195.618-.461 1.216-.7 1.82-.158.404-.327.802-.486 1.205a1.616 1.616 0 0 0-.055 1.015c.602 2.523-.811 4.474-2.565 5.472a7.444 7.444 0 0 1-3.472.974c-.482.018-.96.004-1.7.004Z"/><path d="M55.313 148.507c-1.262.008-1.748-.555-1.527-1.724.105-.553.277-1.092.416-1.638.137-.546.27-1.093.406-1.639.132-.527.036-1.032-.132-1.534-.087-.263-.238-.453-.5-.558a9.541 9.541 0 0 1-.593-.268c-.844-.403-1.633-1.957-1.049-3.039.225-.417.454-.844.753-1.206 1.363-1.647 2.872-3.136 4.74-4.22.9-.523 1.789-1.066 2.684-1.598.185-.112.386-.202.559-.331 1.072-.81 2.156-1.606 3.199-2.452 1.255-1.021 2.213-2.322 3.244-3.55.642-.765 1.263-1.547 1.93-2.288a4.991 4.991 0 0 1 2.53-1.52c.6-.154 1.222-.221 1.804-.043 1.353.412 2.53 1.123 3.363 2.307.274.391.53.794.777 1.203.698 1.158.968 2.404.74 3.745-.037.213-.093.425-.136.636-.155.767-.025 1.453.505 2.066 1.023 1.18 1.153 2.53.852 4.03-.343 1.703-1.205 3.044-2.478 4.165a24.094 24.094 0 0 1-7.43 4.472c-2.069.784-4.165 1.486-6.307 2.038-1.56.403-3.053.975-4.514 1.642-.71.324-1.422.647-2.147.933-.568.221-1.147.424-1.689.371Zm-8.482-20.877c-1.352.099-2.571-.232-3.764-.634-1.362-.458-2.733-.831-4.16-1.02-.771-.102-1.535-.292-2.288-.487-1.415-.367-2.832-.322-4.263-.129-1.89.256-3.78.526-5.679.705-3.201.302-6.37.768-9.47 1.64-.96.27-1.933.498-2.883.799-1.722.547-3.252 1.423-4.489 2.768-.06.063-.114.156-.187.176-.156.042-.337.099-.482.057-.257-.075-.267-.301-.206-.532.167-.628.34-1.254.495-1.885.333-1.347 1.107-2.368 2.34-2.969 1.09-.532 2.206-1.032 3.357-1.403 2.515-.813 5.062-1.528 7.593-2.295 1.495-.453 2.99-.899 4.47-1.395 2.523-.845 4.875-2.048 7.106-3.493 1.021-.66 2.052-1.305 3.08-1.954 2.097-1.322 4.318-2.409 6.578-3.42 1.876-.839 3.856-1.305 5.897-1.521.517-.055 1.032-.129 1.552-.169 1.275-.097 2.512.159 3.717.525 1.2.366 2.377.82 3.56 1.248.243.092.476.21.695.35.394.244.633.573.567 1.076-.127.945-.198 1.892-.497 2.812-.334 1.021-.974 1.614-2.045 1.727-1.76.186-2.95 1.174-3.732 2.694-.297.575-.514 1.194-.755 1.797-.24.603-.462 1.216-.696 1.823-.782 2.029-2.413 2.853-4.437 3.102-.342.044-.695.007-.974.007ZM177.59 84.302l.311 1.257c.605 2.45.335 4.746-1.273 6.77-.564.71-1.208 1.365-1.85 2.01-1.104 1.107-2.24 2.182-3.351 3.28-1.553 1.533-2.88 3.253-4.021 5.105-.613.993-1.068 2.082-1.597 3.126-.275.54-.54 1.087-.848 1.609-.29.491-.763.685-1.327.667-.622-.018-1.207-.166-1.726-.511-1.258-.835-2.635-1.314-4.142-1.401-.729-.042-1.03-.555-1.293-1.115-.033-.068-.013-.174.013-.252a.612.612 0 0 1 .136-.218c1.935-2.129 3.401-4.608 5.152-6.877 1.671-2.166 3.341-4.33 5.126-6.408 1.527-1.779 3.029-3.579 4.547-5.365.791-.933 1.685-1.75 2.734-2.392a2.57 2.57 0 0 1 1.872-.349c.288.052.563.4.826.18.162-.135.113-.494.224-.72.225-.46.856-.75 1.458-.623a6.37 6.37 0 0 1 1.472.497c.739.364 1.458.773 2.156 1.211 1.729 1.083 3.431 2.206 5.013 3.504 1.712 1.404 3.492 2.723 5.117 4.234a62.678 62.678 0 0 1 5.953 6.373c.302.37.561.772.773 1.2.397.81.239 1.383-.475 1.934-.654.503-1.321.986-1.971 1.495-1.101.86-2.278 1.03-3.525.374-.573-.301-1.15-.623-1.653-1.027-1.316-1.064-2.629-2.137-3.877-3.28-2.189-2.006-3.997-4.344-5.634-6.808-.864-1.299-1.619-2.672-2.377-4.04a15.201 15.201 0 0 1-.951-2.134c-.205-.557-.488-1.004-1.019-1.277l-.064-.074a.74.74 0 0 0 .091.045Zm-17.394-22.236c1.876-.028 3.452.691 4.773 2.004.339.335.636.71.949 1.07 1.115 1.283 2.327 2.458 3.767 3.38.948.607 1.9 1.214 2.848 1.823.365.234.493.598.346 1.008-.058.162-.14.318-.23.464a863.8 863.8 0 0 1-2.038 3.33 14.677 14.677 0 0 1-3.033 3.552c-1.225 1.034-2.49 2.025-3.739 3.034-.102.082-.215.148-.315.23-.735.599-1.542.75-2.438.415-.365-.136-.745-.233-1.106-.38-3.217-1.301-6.534-2.321-9.804-3.47-1.635-.574-3.229-1.265-4.921-1.67-.085-.021-.165-.057-.245-.09-.281-.116-.385-.34-.24-.626.587-1.16 1.118-2.357 1.796-3.462 2.101-3.407 4.865-6.205 8.108-8.534 1.063-.763 2.229-1.334 3.469-1.76.667-.227 1.339-.355 2.053-.318Zm-93.18 5.2c.063 1.387-.397 2.777-1.152 4.074-.328.564-.723 1.088-1.373 1.338-.32.124-.65-.056-.644-.395.005-.252.017-.534.128-.75 1.014-1.982.904-4.045.375-6.097-.595-2.314-1.912-4.166-3.906-5.51a8.448 8.448 0 0 0-1.011-.592c-1.657-.818-3.268-.714-4.83.264a10.86 10.86 0 0 0-2.382 2.01c-.895 1.006-1.78 2.021-2.647 3.052-.824.98-1.822 1.732-2.926 2.357-.965.545-2.011.788-3.11.846-3.117.16-5.81-.883-8.105-2.941-2.73-2.447-4.246-5.532-4.768-9.158-.208-1.446-.113-2.857.088-4.277.078-.564.228-1.106.681-1.509.242-.215.67-.177.782.1.828 2.053 2.5 3.011 4.527 3.513 1.33.33 2.673.26 4.014.104 2.37-.277 4.733-.626 7.11-.844 3.106-.284 6.164-.006 9.078 1.202 4.098 1.698 7.183 4.493 9.086 8.532.674 1.433.995 2.954.984 4.68ZM139.5 110.34c.013-.071.064-.413.146-.747.229-.933.601-1.811 1.064-2.651.145-.263.123-.484-.078-.706-1.877-2.071-3.315-4.46-4.869-6.761-.601-.891-.992-1.925-1.465-2.9-.171-.352-.306-.72-.448-1.084-.431-1.108-1.219-1.88-2.262-2.415-.309-.16-.623-.31-.924-.483-.598-.344-.675-.605-.291-1.137.305-.42.643-.82.996-1.2.768-.827 1.604-1.596 2.317-2.465.78-.948 1.754-1.681 2.607-2.543.185-.187.488-.2.718-.015.372.298.754.597 1.063.955.921 1.064 1.996 1.91 3.219 2.61.631.362 1.166.9 1.717 1.388a589.083 589.083 0 0 1 5.237 4.7c1.06.964 2.097 1.956 3.141 2.94.162.144.31.303.444.474.382.52.52 1.03.185 1.68-1.316 2.553-2.704 5.056-4.677 7.183-.857.922-1.697 1.861-2.583 2.755-.456.46-.977.862-1.5 1.249-.597.443-1.285.715-1.993.944-1.079.348-1.654-.152-1.765-1.234-.007-.086 0-.174 0-.537h.001Zm5.231-32.872c.378.082.769.129 1.133.252.657.22 1.304.473 1.945.734 3.139 1.272 6.178 2.754 9.171 4.334 1.764.93 3.541 1.837 5.312 2.754.116.06.241.104.351.17.642.378.801 1.18.358 1.788a1.319 1.319 0 0 1-.174.195c-.952.847-1.609 1.925-2.338 2.951-1.308 1.84-2.964 3.26-5.035 4.203-.944.429-1.827.465-2.722-.085-.442-.273-.911-.505-1.347-.787-2.041-1.321-4.064-2.667-6.111-3.977a108.73 108.73 0 0 0-4.103-2.515c-.692-.401-1.278-.88-1.731-1.54-.488-.713-.92-1.473-1.636-2.006-.187-.138-.224-.374-.159-.595a5.02 5.02 0 0 1 .315-.839c.106-.19.245-.36.41-.502 1.31-1.203 2.535-2.5 3.977-3.554.316-.23.648-.436.993-.618a2.994 2.994 0 0 1 1.391-.363Z"/><path d="M127.685 114.974c.076-.399.141-1.005.312-1.581.195-.66.168-1.278-.106-1.897-.228-.515-.431-1.044-.692-1.544-2.03-3.902-3.445-8.044-4.784-12.216-.041-.123-.091-.245-.118-.37-.079-.367-.002-.695.297-.94 1.113-.903 2.248-1.775 3.593-2.32.565-.227 1.142-.393 1.765-.402.339-.006.677-.107 1.017-.167.297-.052.593-.135.893-.152.41-.024.766.12 1.005.48.095.146.188.293.277.442 2.255 3.654 4.507 7.312 6.768 10.962.387.624.759 1.271 1.236 1.825.41.476.404.931.205 1.438-.11.28-.274.541-.433.799-1.901 3.09-4.485 5.497-7.474 7.504a5.524 5.524 0 0 1-1.778.78c-.95.231-1.633-.183-1.84-1.138-.09-.421-.086-.862-.143-1.503Zm-5.69 10.866c-.01-.709.177-1.375.447-2.019.082-.199.169-.423.323-.557.774-.686 1.412-1.525 2.354-2.026 1.459-.776 2.923-1.545 4.52-1.99 2.609-.729 5.029-1.903 7.445-3.088 2.382-1.166 4.657-2.516 6.859-3.999 1.112-.75 2.3-1.396 3.477-2.044a84.569 84.569 0 0 1 3.701-1.915c.581-.283 1.202-.49 1.819-.685.633-.2 1.273-.157 1.931-.041.596.104 1.048.376 1.437.812.835.931 1.051 2.079 1.085 3.264.016.532-.253 1.025-.683 1.358-.511.399-1.03.807-1.601 1.109-2.455 1.306-4.975 2.462-7.673 3.202-1.547.424-3.075.924-4.604 1.414-2.994.958-5.757 2.421-8.503 3.916-1.297.705-2.59 1.421-3.865 2.164-.786.459-1.539.975-2.3 1.478-.725.479-1.424.995-2.158 1.458a5.034 5.034 0 0 1-1.174.546c-1.447.451-2.734-.453-2.837-1.967-.007-.129 0-.259 0-.39Zm-16.599-9.8a7.184 7.184 0 0 1-.603 2.926c-.311.706-.783 1.245-1.487 1.569-1.106.508-2.221.955-3.452 1.115-2.241.292-4.446.757-6.538 1.657a6.228 6.228 0 0 1-.989.325c-.156.038-.34-.001-.504-.041-.181-.045-.338-.381-.255-.534a4.46 4.46 0 0 1 .344-.547c1.12-1.487 1.826-3.137 1.99-5.004.093-1.053.417-2.034.888-2.975.698-1.392.945-2.872.892-4.421-.028-.817-.317-1.526-.76-2.181-.466-.691-1.18-.983-1.976-1.135-.852-.162-1.692-.389-2.548-.522-.59-.091-1.051-.39-1.513-.712-.286-.2-.242-.569.082-.741a2.86 2.86 0 0 1 .478-.196c1.16-.377 2.346-.647 3.559-.749 1.384-.115 2.773-.162 4.157-.252.52-.034 1.036-.099 1.552-.16.91-.108 1.807-.121 2.716.099 1.018.247 1.59.834 1.707 1.866.063.562.181 1.128.148 1.684-.077 1.3.297 2.483.749 3.667.371.971.733 1.951 1.002 2.954.202.749.247 1.538.361 2.308Zm-72.25 9.986c1.534.017 3.026.284 4.507.627 2.194.512 4.386 1.04 6.585 1.533.759.17 1.533.296 2.307.374 1.473.149 2.841-.19 4.095-.99.511-.326 1.023-.662 1.568-.924.464-.222.971-.365 1.471-.5.195-.052.43-.011.636.033.308.065.48.468.314.724-.117.179-.25.359-.408.502-.71.638-1.412 1.286-2.151 1.889-.98.801-2.16 1.076-3.39 1.173-1.08.086-2.162.161-3.244.227-1.516.09-3.022.269-4.526.481-1.073.153-2.155.238-3.236.314-1.732.124-3.466.2-5.196.325-1.687.121-3.37.3-5.055.41-2.25.147-4.503.256-6.755.372-1.69.087-3.383.12-5.068.255-1.3.104-2.567.398-3.73 1.045-.566.316-1.16.585-1.75.852-.092.041-.283.001-.35-.072-.102-.117-.207-.304-.186-.441.031-.202.147-.406.272-.576.483-.668.96-1.343 1.482-1.98 1.036-1.261 2.272-2.214 3.89-2.67 3.09-.87 6.196-1.672 9.378-2.112 1.931-.268 3.88-.42 5.819-.617.908-.091 1.815-.17 2.722-.254Zm139.942-5.995c-.054.648-.226 1.227-.554 1.75-.622.989-1.257 1.971-1.89 2.954a2.59 2.59 0 0 1-.237.31c-.442.498-.914.627-1.511.326a8.153 8.153 0 0 1-1.308-.84c-.684-.534-1.322-1.125-1.999-1.665-1.016-.81-2.052-1.599-3.079-2.397-.546-.425-1.095-.849-1.64-1.279-1.186-.933-1.816-2.168-2.05-3.648a72.017 72.017 0 0 0-.682-3.571c-.226-1.074-.229-2.152-.126-3.235.041-.427.265-.651.713-.792.513-.163.862-.089 1.308.202 2.066 1.35 4.167 2.646 6.25 3.969.37.226.724.479 1.058.756 1.285 1.1 2.559 2.213 3.821 3.339.998.893 1.672 1.983 1.854 3.337.024.172.051.342.072.484Zm-53.483 4.717c-.153 1.027-.302 2.015-.711 2.935-.139.313-.304.632-.527.888-.511.587-1.03 1.177-1.61 1.694-1.002.893-2.056 1.729-3.083 2.594-1.893 1.587-3.781 3.182-5.676 4.768-.499.417-1.001.834-1.534 1.203-.35.241-.753.417-1.149.583-.379.157-.652.059-.898-.27a3.446 3.446 0 0 1-.341-.552c-.279-.592-.725-.95-1.367-1.091a4.045 4.045 0 0 1-.856-.299c-.323-.155-.473-.526-.384-.882.189-.765.479-1.499 1.023-2.078a18.585 18.585 0 0 1 1.789-1.693c.603-.492 1.268-.909 1.923-1.334.702-.456 1.266-1.035 1.75-1.718a125.897 125.897 0 0 1 2.752-3.786c1.216-1.592 2.59-3.032 4.217-4.218.313-.228.584-.515.877-.772.221-.194.464-.217.712-.054.544.356 1.106.689 1.623 1.08.996.759 1.473 1.79 1.47 3.002Zm-90.107 31.128c-.446-.076-.96-.148-1.466-.253-2.207-.448-4.406-.923-6.647-1.196-1.676-.205-3.333-.546-5.003-.809-.983-.154-1.97-.316-2.961-.397-2.836-.232-5.537-.991-8.17-2.021-.886-.347-1.75-.753-2.632-1.109-.813-.326-.94-1.087-1.093-1.781-.11-.497.235-.898.631-1.205a.41.41 0 0 1 .232-.1.409.409 0 0 1 .246.059c.228.126.453.257.686.371 2.033 1.003 4.182 1.375 6.437 1.198a36.442 36.442 0 0 1 2.336-.126c1.345-.022 2.69.007 4.035-.014.604-.009 1.205-.089 1.809-.134.171-.012.344-.029.514-.023 1.127.043 2.253.123 3.38.13 2.579.016 4.835.885 6.826 2.493a192.29 192.29 0 0 1 2.813 2.312c.265.223.504.476.712.753.276.371.19.859-.155 1.173-.367.332-.81.505-1.288.578-.386.058-.779.065-1.242.101Zm96.454-43.339a2.526 2.526 0 0 1-.435 1.623c-.888 1.344-1.858 2.626-3.032 3.732-.433.408-.985.7-1.51.999-.311.178-.757-.087-.776-.441a5.395 5.395 0 0 1 .052-1.032c.08-.559.199-1.11.297-1.664.272-1.546.129-3.047-.672-4.411-1.059-1.801-1.875-3.717-2.76-5.599-.738-1.566-1.344-3.197-2.005-4.8a3.053 3.053 0 0 1-.12-.369c-.209-.817-.122-1.515.613-2.09.923-.72 1.781-1.523 2.68-2.273.235-.19.495-.35.773-.472.756-.344 1.33-.188 1.814.49.331.463.525.989.659 1.545.318 1.305.65 2.606.997 3.903.111.418.28.821.424 1.229.491 1.389.989 2.777 1.47 4.168.395 1.147.781 2.297 1.159 3.45.219.657.431 1.321.372 2.012Zm-53.81 38.598c-.313-.079-.661-.125-.975-.253-.617-.251-.797-.981-.38-1.51.163-.203.36-.377.58-.514.477-.3.965-.581 1.464-.843 3.767-1.982 7.695-3.587 11.71-4.989 1.104-.385 2.2-.794 3.296-1.203 1.831-.682 3.729-1.138 5.618-1.612.705-.177 1.438-.245 2.16-.357 1.204-.188 2.384-.458 3.434-1.112.836-.518 1.718-.831 2.712-.701.297.039.599.103.878.213.788.308.982.652.925 1.5-.018.273-.099.513-.305.693-.391.343-.771.701-1.186 1.012-2.368 1.778-4.992 2.946-7.956 3.282-.171.02-.345.027-.52.033-4.398.17-8.543 1.358-12.5 3.218-2.517 1.183-5.066 2.253-7.773 2.922-.375.09-.76.142-1.181.221Zm42.521-30.847c-.297.44-.573.932-.934 1.353a7.1 7.1 0 0 1-1.157 1.045c-1.306.962-2.357 2.169-3.376 3.412-.633.772-1.263 1.546-1.921 2.294-.933 1.061-2.083 1.828-3.387 2.356-.844.341-1.689.681-2.552.964-2.146.706-4.268 1.453-6.117 2.808-.27.198-.548.113-.6-.188-.135-.763-.522-1.356-1.088-1.872-.217-.196-.362-.48-.509-.742-.201-.36-.196-.727-.041-1.122.31-.793.762-1.427 1.516-1.878 2.269-1.357 4.589-2.628 6.955-3.808 1.668-.832 3.349-1.638 5.019-2.463 1.989-.983 4.042-1.792 6.213-2.26.583-.127 1.198-.101 1.798-.132.042-.002.09.11.181.233Zm60.72-47.052c-.144 2.28-.693 4.224-1.692 6.043-.903 1.644-2.001 3.153-3.17 4.609-1.112 1.388-2.323 2.7-3.415 4.105a1558.51 1558.51 0 0 0-9.695 12.593c-1.187 1.558-2.424 3.064-3.838 4.42-.312.301-.598.632-.91.933a1.653 1.653 0 0 1-.427.278c-.225.109-.576-.142-.537-.388.037-.212.093-.42.167-.622.287-.818.598-1.629.874-2.45.503-1.491 1.304-2.835 2.043-4.21.288-.533.609-1.05.89-1.589a4.212 4.212 0 0 1 1.256-1.474c.594-.438 1.17-.902 1.787-1.305.951-.621 1.802-1.355 2.619-2.138 1.905-1.827 2.937-4.057 3.089-6.681.037-.612.242-1.095.691-1.482.425-.37.854-.74 1.31-1.07 1.026-.749 1.901-1.643 2.694-2.631 1.711-2.135 3.409-4.28 4.889-6.587.184-.29.429-.544.667-.794.195-.206.538-.114.633.158.035.09.06.185.075.282Z"/><path d="M112.992 113.485c-.34 1.575-.725 3.085-1.262 4.551-.084.23-.291.433-.483.604a17.936 17.936 0 0 1-6.389 3.678 1.002 1.002 0 0 1-.509.04c-.153-.034-.348-.135-.405-.259-.049-.111.021-.341.118-.439.214-.211.488-.362.719-.558.715-.61 1.19-1.363 1.362-2.301.071-.383.169-.76.293-1.129.645-1.945.626-3.857-.372-5.675-.817-1.49-1.079-3.102-1.247-4.75a15.027 15.027 0 0 0-.187-1.286 3.083 3.083 0 0 0-.819-1.596c-.518-.538-.48-.779.078-1.277.129-.116.26-.235.405-.326.995-.621 1.983-1.252 2.994-1.844.524-.304.921-.22 1.22.302.366.637.685 1.308.934 1.997.282.776.507 1.571.675 2.378.371 1.806 1.102 3.467 1.913 5.105.231.467.463.937.632 1.428.157.445.227.92.33 1.357Zm88.749-19.258c-2.016-.038-3.874-.523-5.492-1.763a79.226 79.226 0 0 1-2.146-1.696c-2.145-1.768-4.266-3.565-6.422-5.318-1.693-1.375-3.532-2.526-5.561-3.349-.519-.212-1.066-.356-1.593-.551-.305-.113-.335-.538-.073-.744.286-.224.603-.364.966-.275.757.184 1.523.348 2.263.589 3.632 1.19 7.149 2.674 10.652 4.196 2.706 1.177 5.439 2.288 8.151 3.449.677.29 1.351.608 1.968 1.002 1.093.702 1.319 1.316.977 2.544-.263.943-.811 1.623-1.883 1.716-.603.054-1.204.133-1.807.2ZM89.307 138.593c-1.084.029-2.16.017-3.224-.276-1.28-.353-2.246-1.124-3.022-2.14-.943-1.235-.87-3.212.127-4.506 1.37-1.779 3.055-3.037 5.362-3.358.987-.138 1.953-.383 2.958-.224.128.021.262.022.383.06.604.197.862.576.55 1.185-.08.155-.15.313-.23.468-.433.825-.416 1.637-.047 2.497.683 1.588.661 1.598 2.009 3.14.478.546.453 1.512-.088 1.991-.803.709-1.74 1.134-2.827 1.161-.65.015-1.3.002-1.95.002Z"/><path d="M113.617 117.835c.128-.689.288-1.408.392-2.136.116-.77.193-1.545.232-2.323.045-1.115-.309-2.129-.919-3.063-.474-.725-.973-1.444-1.354-2.216-.595-1.203-1.179-2.421-1.617-3.685-.386-1.108-.358-2.308-.346-3.48.002-.231.148-.461.374-.47.561-.02.957-.368 1.408-.615.227-.126.456-.26.7-.34.76-.257 1.236-.077 1.648.602.861 1.42 1.392 2.978 1.903 4.545.322.987.701 1.956 1.026 2.942.394 1.193.755 2.396 1.135 3.591.236.742.493 1.48.726 2.223.329 1.05.072 1.975-.67 2.758a49.801 49.801 0 0 1-2.295 2.301c-.342.316-.774.558-1.198.763-.499.241-.95-.023-1.066-.583-.052-.252-.051-.515-.079-.814Zm66.056 20.148c.06-.303.119-.691.216-1.068.436-1.688 1.042-3.303 1.94-4.809a100.805 100.805 0 0 0 5.394-10.396c.373-.829.834-1.619 1.254-2.428.52-.997 1.501-1.292 2.468-1.505.775-.17 1.535.757 1.402 1.642-.071.464-.23.93-.431 1.357-.35.745-.721 1.486-1.159 2.182-1.482 2.36-2.696 4.855-3.809 7.403-.783 1.795-1.697 3.51-2.87 5.093-.945 1.273-2.159 2.253-3.31 3.305-.189.173-.429.307-.714.2-.24-.09-.39-.393-.381-.763v-.213Zm35.678-24.309c-.011.677-.464 1.008-.983.83-.586-.2-1.069-.567-1.519-.982a20.433 20.433 0 0 1-3.291-3.855c-1.72-2.639-2.908-5.52-3.815-8.523-.125-.414-.164-.853-.274-1.273-.174-.667-.296-1.367-.583-1.986-.399-.858-.313-1.585.269-2.296.11-.133.192-.297.32-.408.257-.224.524-.573.808-.594.424-.031.739.38 1.038.672.178.174.275.437.394.669 1.685 3.285 3.214 6.636 4.365 10.152.254.779.643 1.515.966 2.272.168.395.319.798.496 1.189.102.236.225.463.367.677.619.907.991 1.925 1.355 2.947.07.198.072.422.087.509Zm-40.612 9.987c-.116 2.636-.518 5.068-1.445 7.386a17.696 17.696 0 0 1-1.287 2.549 16.082 16.082 0 0 0-1.441 3.051c-1.008 2.911-1.784 5.889-2.62 8.851a3.88 3.88 0 0 1-.324.833c-.155.277-.609.27-.767-.007a2.166 2.166 0 0 1-.259-.717c-.152-.996-.107-2.001.048-2.985.469-2.953.948-5.905 1.499-8.843.36-1.922.928-3.79 2.005-5.459.373-.589.63-1.243.758-1.927.276-1.386.977-2.59 1.652-3.799.185-.332.479-.615.769-.872.534-.475 1.322-.133 1.344.529.017.519.049 1.04.068 1.41Zm18.361-6.417c-.298-.049-.6-.077-.893-.149-.627-.157-1.251-.334-1.873-.509a3.62 3.62 0 0 1-.488-.18c-.436-.2-.636-.601-.5-1.069.08-.293.198-.574.353-.835 1.344-2.182 2.358-4.53 3.485-6.823 1.211-2.463 3.08-4.38 5.247-6.026.528-.402 1.09-.513 1.695-.178.252.14.385.368.339.646-.05.295-.146.587-.245.872-.51 1.479-1.23 2.864-1.968 4.238-.328.611-.67 1.214-.991 1.828-.792 1.51-1.327 3.098-1.476 4.81-.041.471-.16.94-.286 1.398-.079.288-.21.571-.362.83-.453.767-1.089 1.229-2.037 1.147ZM62.866 81.483c-.021-.327-.046-.542-.047-.759 0-.252.168-.392.386-.46.242-.075.559.101.598.366.21 1.433.858 2.724 1.294 4.083.451 1.404.838 2.827.896 4.316.035.883-.072 1.734-.553 2.502-.093.147-.173.303-.28.438-1.241 1.542-2.629 1.583-4.045.353-.913-.793-1.23-1.858-1.054-3.063a7.443 7.443 0 0 1 .7-2.225c.462-.932.94-1.858 1.414-2.785.46-.904.735-1.85.69-2.766Zm3.009 37.968c.11.016.33.026.538.079a1.509 1.509 0 0 1 1.154 1.53c-.01.301-.045.614-.144.895-.585 1.665-1.445 3.165-2.83 4.296-.737.602-1.523 1.147-2.31 1.688-.65.446-1.391.705-2.157.882a1.704 1.704 0 0 1-.514.033c-.36-.028-.598-.505-.377-.793.209-.271.468-.506.721-.739.477-.441.98-.858 1.446-1.31.512-.496.837-1.086.905-1.823.064-.689.192-1.373.31-2.056.295-1.714 1.446-2.688 3.258-2.682Zm156.355.084c-.173-.042-.552-.124-.926-.223-2.022-.532-3.523-1.777-4.71-3.449a3.03 3.03 0 0 1-.302-.572c-.175-.406.127-.646.352-.895.17-.189.433-.185.712-.011.218.138.424.299.64.442 1.194.782 2.391 1.56 3.585 2.342.362.236.73.466 1.076.724.204.16.388.343.549.546.165.206.279.443.133.716-.135.252-.356.365-.634.378-.087.005-.174.002-.475.002Zm-88.759-86.052c.183-.014.298.042.262.254l.02-.02c-.177.003-.267-.081-.255-.262l-.027.028Zm.027-.028c-.17-.006-.254-.093-.251-.264l-.033.033c.165.009.262.082.255.258l.029-.027Z"/><path d="m133.246 33.19-.253-.256-.026.022.248.267.031-.033Zm-.254-.256-.073-.037.048.058.025-.021Zm-2.89-14.06.11-.124c-.007.03-.005.074-.022.084-.031.017-.072.012-.109.017l.021.022Z"/></svg></svg>